<svg version="1.1" id="Layer_1" xmlns="http://www.w3.org/2000/svg" xmlns:xlink="http://www.w3.org/1999/xlink" x="0px" y="0px"
	 width="100%" viewBox="0 0 1024 1024" enable-background="new 0 0 1024 1024" xml:space="preserve">
<path fill="#000000" opacity="1.000000" stroke="none" 
	d="
M390.118256,571.204956 
	C391.538513,569.060852 393.727386,567.401367 390.930481,565.007812 
	C379.300262,555.055054 378.761932,542.242798 382.508118,528.886597 
	C386.192841,515.749634 393.708496,504.379211 401.234314,493.182495 
	C409.874237,480.328247 418.888702,467.722534 427.907074,455.128174 
	C430.300598,451.785553 431.138794,449.769958 426.895477,446.838989 
	C418.192932,440.827911 415.802246,428.360718 420.251709,416.438385 
	C424.197357,405.866119 430.598083,396.704102 436.982849,387.545807 
	C450.903961,367.577332 466.337799,348.771790 481.508026,329.764221 
	C482.426666,328.613220 483.289581,327.417725 484.626648,325.650482 
	C474.381653,320.883881 476.257935,312.230652 478.360687,304.446594 
	C481.013214,294.627289 480.175110,286.827179 471.056488,280.859192 
	C468.054688,278.894531 465.645905,275.926666 463.658539,272.798737 
	C459.204132,265.787994 461.876282,258.494812 469.927673,256.574371 
	C475.413147,255.265945 481.037537,254.438461 486.644714,253.775757 
	C490.785461,253.286377 493.582367,251.902390 495.326599,247.695114 
	C497.612640,242.180710 500.533752,236.884521 503.616547,231.755859 
	C508.448486,223.717209 517.842468,223.732193 522.549133,231.820358 
	C525.725159,237.278122 528.443054,243.020752 531.078552,248.767761 
	C532.596863,252.078659 534.931152,253.317978 538.414185,253.737839 
	C544.347290,254.453079 550.304626,255.305862 556.104309,256.709930 
	C564.812561,258.818146 567.293518,266.977020 561.585205,274.108704 
	C557.620911,279.061432 552.998718,283.409058 548.270996,287.623077 
	C546.245789,289.428192 545.375854,291.183716 546.076965,294.126923 
	C547.306458,299.287415 547.911865,304.599487 548.715637,309.857697 
	C549.979431,318.125427 548.638367,320.897156 540.952026,325.632080 
	C547.862183,334.364685 554.773682,343.040405 561.621887,351.765747 
	C574.788208,368.540955 587.995117,385.291351 599.145020,403.525787 
	C602.016296,408.221405 604.648987,413.085693 606.150330,418.405701 
	C609.403137,429.931946 609.048645,440.402161 594.813232,449.871979 
	C594.771545,452.082001 596.505920,453.374573 597.648071,454.921173 
	C610.418030,472.211517 623.146484,489.532776 633.970825,508.144043 
	C640.542236,519.442932 646.503906,530.935364 645.364563,544.715088 
	C644.746399,552.192566 642.378235,558.914124 636.583984,563.658203 
	C632.920654,566.657471 633.696106,568.526367 636.057922,571.701477 
	C652.471313,593.766907 668.372131,616.198364 681.564819,640.387878 
	C687.303955,650.911011 692.286011,661.690674 693.579163,673.978821 
	C695.858276,695.637268 687.266479,709.839539 666.515686,717.067566 
	C655.753967,720.816162 644.566467,722.595947 633.241821,723.247009 
	C608.941345,724.643921 584.624695,724.425232 560.311584,723.436340 
	C558.980286,723.382141 557.638855,723.486206 556.314453,723.373169 
	C552.897522,723.081543 551.392883,724.670898 551.414612,728.018860 
	C551.510742,742.836731 551.535156,757.655090 551.672852,772.472534 
	C551.734680,779.126953 552.233215,785.789246 551.363098,792.419739 
	C550.635803,797.962280 547.766052,801.152588 542.312988,802.321228 
	C539.892212,802.839966 537.367432,803.071960 534.887939,803.085083 
	C520.225586,803.162964 505.562714,803.150696 490.900024,803.144287 
	C478.717896,803.138916 473.904510,798.319336 473.916321,786.199097 
	C473.934784,767.204346 473.826935,748.208008 474.058563,729.215881 
	C474.115143,724.576050 472.615387,723.030151 468.022552,723.330200 
	C451.554047,724.406006 435.048706,724.244141 418.561340,724.060486 
	C400.927429,723.864197 383.206482,723.845154 366.006714,719.171082 
	C352.456879,715.488831 340.042664,709.787354 334.666351,695.418823 
	C330.082184,683.167358 331.253693,670.837646 335.886444,658.812744 
	C344.166870,637.319824 357.272156,618.562805 369.951782,599.598572 
	C376.336975,590.048584 383.237274,580.842957 390.118256,571.204956 
M391.256287,553.046631 
	C393.640259,557.569885 397.672058,560.199768 402.120178,562.229797 
	C409.475952,565.586914 417.302673,567.167480 425.322327,567.669678 
	C433.962280,568.210754 442.618591,568.487854 451.266266,568.910889 
	C453.671417,569.028442 456.902985,569.415100 455.526306,572.609985 
	C453.606812,577.064514 455.311707,579.777405 458.021942,582.824768 
	C460.505890,585.617676 460.059692,588.125610 456.678131,590.198303 
	C450.978973,593.691589 444.960510,595.725281 438.202789,595.234009 
	C433.220886,594.871826 428.224396,594.676270 423.253662,594.203674 
	C417.648529,593.670776 412.940918,595.304626 409.662170,599.896667 
	C405.725891,605.409485 400.084595,609.113770 395.485809,613.905823 
	C392.469391,617.049072 389.300934,620.347290 388.590790,624.714111 
	C387.364838,632.252319 386.750244,639.892822 385.982208,647.500854 
	C385.764069,649.661682 386.120941,651.808105 386.986206,653.859558 
	C391.915253,665.545837 401.037048,673.348267 411.997223,678.557861 
	C422.697205,683.643799 434.450806,683.278809 445.839752,680.772278 
	C458.579468,677.968323 469.506775,680.628784 479.105591,689.432678 
	C483.636597,693.588501 488.557617,697.212219 493.776764,700.578369 
	C498.820221,703.831299 504.651215,705.549561 509.306122,709.475098 
	C519.043213,717.686462 532.788879,717.087585 541.438538,708.058044 
	C546.147034,703.142822 551.596069,700.211731 558.415955,699.501343 
	C564.085571,698.910706 569.711609,699.076477 575.371948,699.350159 
	C599.196838,700.502075 623.197205,701.174072 646.551514,696.338440 
	C663.775024,692.772339 668.948486,683.718262 662.373535,668.572266 
	C660.715637,664.753235 658.708496,661.036865 657.506348,657.077637 
	C652.722290,641.322510 641.943176,629.798828 630.776123,618.526367 
	C627.095276,614.810730 624.883362,610.346863 626.852356,605.441589 
	C630.645142,595.992554 628.489319,586.860413 626.635254,577.598145 
	C625.960022,574.225220 624.868408,571.377747 621.313965,569.772095 
	C618.157104,568.345947 617.342834,565.932068 621.035706,564.048035 
	C625.432861,561.804688 626.734131,557.821594 627.784485,553.530457 
	C631.437317,538.606140 626.830322,525.608948 618.322144,513.616638 
	C615.983032,510.319733 614.045166,506.958649 612.716797,503.119141 
	C608.116028,489.820618 603.279053,476.620209 592.551636,466.680237 
	C591.879578,466.057526 591.460022,464.946136 591.319336,464.003021 
	C590.650818,459.521729 588.397339,455.884399 585.371155,452.700775 
	C583.151855,450.365967 583.243591,448.617340 585.817993,446.533173 
	C588.465027,444.390106 591.799255,442.684265 592.319641,438.686523 
	C593.096680,432.718231 593.029602,426.770935 592.624451,420.760468 
	C592.074768,412.606293 578.790649,402.937134 570.577637,400.389557 
	C571.445984,404.054718 572.682129,407.543610 572.251831,411.257172 
	C571.492004,417.815491 567.514282,421.769318 561.617188,423.859283 
	C555.893921,425.887665 550.600769,424.456543 546.460571,420.215149 
	C542.228027,415.879028 540.568604,410.612732 543.005737,404.620789 
	C546.271729,396.590912 554.045044,393.201141 563.225281,395.757385 
	C564.745544,396.180695 566.422607,397.520508 567.856140,395.881226 
	C569.246765,394.291168 567.725220,392.755920 567.278687,391.237366 
	C566.510010,388.623260 564.938599,386.531433 563.132507,384.500916 
	C559.083984,379.949310 554.055847,376.723236 549.047119,373.408569 
	C540.753906,367.920410 538.883240,362.360718 542.057800,353.162415 
	C543.456238,349.110504 542.894348,345.181183 541.000427,341.544495 
	C535.805176,331.568268 529.765137,322.587830 519.130493,317.093201 
	C513.944458,314.413696 510.452545,314.614380 506.204651,317.899750 
	C502.196442,320.999756 501.680695,327.323608 505.229889,331.070679 
	C508.991364,335.041870 510.729218,339.832764 509.553101,345.292999 
	C508.709900,349.207550 506.262573,351.570953 501.996704,350.709930 
	C498.624878,350.029358 495.830261,350.718292 494.342468,353.787933 
	C492.683197,357.211334 496.400879,357.807800 498.026917,359.299469 
	C502.811401,363.688538 504.279846,369.114441 502.991272,375.190430 
	C501.728088,381.146576 497.585083,384.597321 491.757874,385.982849 
	C486.443604,387.246399 481.989655,385.307434 477.833740,382.123291 
	C473.529877,378.825775 469.221130,381.138245 465.101654,382.616272 
	C461.225494,384.006958 461.735382,387.618591 461.978577,390.738708 
	C462.327393,395.213562 463.216614,399.636963 463.083832,404.163452 
	C462.950989,408.692139 465.196442,411.878754 469.316376,413.462982 
	C473.007782,414.882355 474.778687,417.663940 475.778503,421.161011 
	C476.556641,423.882782 477.258667,426.633148 477.838165,429.403534 
	C479.285248,436.321320 483.575287,439.923370 490.491150,440.874847 
	C494.432068,441.416992 498.492828,441.768005 502.056915,443.782959 
	C503.949860,444.853149 506.274841,445.835358 505.520477,449.654480 
	C490.061829,442.635406 473.960266,444.475677 458.067596,444.037567 
	C453.925903,443.923340 449.848938,442.862366 445.915344,441.383148 
	C439.818634,439.090576 435.880188,434.885925 434.582703,428.493164 
	C432.805542,419.737213 435.846130,412.009064 440.526062,404.936066 
	C452.109528,387.429382 464.459045,370.450958 477.057953,353.668396 
	C481.020386,348.390137 484.715637,342.921387 489.609070,338.223877 
	C494.308411,333.712646 495.477661,326.470215 500.040466,321.477173 
	C498.740021,322.163940 497.782593,323.072266 496.944702,324.080017 
	C478.838776,345.857178 461.088226,367.911804 444.791382,391.096832 
	C438.089752,400.631134 430.919128,409.902496 427.283630,421.210388 
	C423.853485,431.879486 427.772919,440.092499 438.256927,443.930664 
	C441.521179,445.125702 444.940826,446.003723 448.360901,446.645782 
	C459.042145,448.651215 469.869965,448.812286 480.697296,448.927795 
	C484.491180,448.968262 488.238312,449.333221 491.015045,452.339081 
	C490.498199,453.497711 489.692383,453.925385 488.875366,453.815643 
	C480.407684,452.678619 476.496155,458.124542 473.508667,464.612213 
	C471.538361,468.890961 468.289001,470.545654 463.824402,471.372742 
	C458.499603,472.359192 453.586792,470.795013 448.497467,470.188232 
	C446.579010,469.959534 444.058563,469.672241 443.577454,472.307831 
	C443.118805,474.820251 445.391266,475.728333 447.316803,476.201569 
	C450.052582,476.873993 452.921387,476.998993 455.664581,477.648529 
	C464.180756,479.665070 470.037750,484.755829 471.845490,493.435333 
	C473.440308,501.092743 470.802979,507.662323 464.549622,512.385498 
	C457.654022,517.593811 448.984222,517.732544 441.567963,513.190552 
	C435.837311,509.681000 432.088104,510.391785 427.656281,515.828125 
	C425.033691,519.045105 425.535522,521.830139 429.449280,523.204651 
	C436.040802,525.519470 439.417633,530.451599 440.492249,536.841370 
	C441.245422,541.319580 442.395599,545.506470 444.117828,549.705383 
	C446.871918,556.420288 444.973724,560.295105 437.923615,562.066345 
	C428.597107,564.409424 419.759186,561.697754 411.265839,558.066162 
	C402.496155,554.316467 398.649292,547.356812 398.579620,537.864380 
	C398.506256,527.864075 401.561981,518.849976 406.405121,510.345062 
	C413.249451,498.325897 420.915009,486.813171 428.341461,475.151031 
	C432.654419,468.378174 437.473236,461.830414 440.951141,453.260803 
	C439.524506,454.177582 439.031891,454.344116 438.765717,454.686615 
	C421.571655,476.812317 405.241699,499.530273 392.816193,524.755554 
	C388.496002,533.526062 387.374237,542.875183 391.256287,553.046631 
M517.945923,307.500977 
	C523.155334,310.453674 528.028748,314.014465 533.674866,316.176605 
	C539.566528,318.432770 541.395447,317.185699 540.702454,310.789856 
	C540.130371,305.509888 539.008728,300.286346 538.052307,295.052124 
	C537.311890,290.999786 537.991821,287.612885 540.107849,283.753296 
	C545.695923,273.560547 547.533508,264.033447 532.138611,261.014099 
	C528.927368,260.384308 526.998657,258.409882 525.412476,255.629166 
	C522.064148,249.759369 520.490295,249.468506 514.345032,252.548447 
	C512.240967,253.603012 510.627686,256.047028 507.106720,255.039032 
	C507.624695,249.197083 510.374268,244.388672 513.844421,239.978302 
	C515.215210,238.236130 516.655762,236.672333 514.401367,234.993271 
	C511.982239,233.191422 510.799255,235.402130 509.854401,237.149200 
	C506.764252,242.863083 503.514130,248.512878 500.831146,254.417084 
	C498.848816,258.779358 495.599579,260.626465 491.205322,261.248169 
	C485.443939,262.063293 479.672791,262.826752 473.937469,263.798828 
	C471.954865,264.134857 469.653442,265.004883 470.503448,267.667480 
	C471.170471,269.757050 472.812012,271.467926 475.424103,270.189301 
	C478.098816,268.880035 479.198975,270.666138 478.992889,272.518555 
	C478.408386,277.772430 482.067322,280.336182 485.165863,283.248322 
	C488.078400,285.985596 489.380554,288.962372 488.451721,293.056885 
	C487.423431,297.589935 487.159851,302.300659 486.065369,306.813263 
	C485.105042,310.772461 487.460968,312.321747 489.935303,314.468964 
	C492.651733,316.826233 494.305542,314.492218 496.127686,313.645142 
	C500.349152,311.682648 504.439728,309.416748 508.481079,307.095703 
	C511.510437,305.355865 514.382385,304.952118 517.945923,307.500977 
M383.503662,713.786316 
	C392.588867,714.974792 401.723389,715.610535 410.875061,715.643494 
	C436.191467,715.734558 461.508392,715.676086 486.825104,715.645935 
	C487.995239,715.644531 489.356628,716.139648 490.687683,714.640381 
	C487.997772,713.790100 485.670807,712.937683 483.283112,712.319946 
	C472.422791,709.510376 461.268127,708.682861 450.152161,708.414978 
	C432.840546,707.997803 415.507477,708.531128 398.191315,708.222717 
	C387.138367,708.025818 376.324005,705.965271 366.362244,700.837952 
	C356.547058,695.786072 352.071411,687.432617 351.619171,676.548096 
	C350.981567,661.200378 356.881470,647.893982 364.513397,635.226990 
	C375.940796,616.260437 387.709045,597.499390 399.276489,578.616760 
	C400.255951,577.017883 401.925293,575.565979 401.274109,573.016724 
	C398.107361,573.295715 396.858582,575.874512 395.416412,577.883545 
	C381.821808,596.821594 368.186401,615.745667 356.454803,635.924744 
	C349.849213,647.286743 342.754700,658.633362 340.835327,671.896973 
	C338.197418,690.126404 342.587860,702.301453 361.684509,709.250671 
	C368.457642,711.715332 375.487213,712.922119 383.503662,713.786316 
M458.366730,508.981293 
	C464.950012,504.867249 467.026123,500.576019 465.563599,494.105438 
	C464.399994,488.957367 460.041138,484.967804 454.844696,484.294586 
	C448.857635,483.518921 443.908783,485.787018 441.241821,490.528931 
	C438.372406,495.630920 438.753693,501.377045 442.732117,505.833771 
	C446.804565,510.395844 451.952118,511.419891 458.366730,508.981293 
M561.755249,402.610260 
	C556.400146,400.474762 552.506653,401.383972 549.941284,405.369080 
	C547.455994,409.229736 547.868286,413.166504 551.078003,416.223541 
	C554.669678,419.644348 560.071106,419.850922 563.245850,416.688904 
	C566.979126,412.970642 566.629211,407.512787 561.755249,402.610260 
M486.930725,368.670959 
	C485.514832,370.422546 484.987976,372.449432 485.079926,374.665771 
	C485.150238,376.360718 485.294373,378.489716 487.395752,378.365234 
	C491.159058,378.142273 494.364563,376.516815 495.991516,372.758270 
	C497.242371,369.868652 497.077545,367.100952 494.350525,365.272339 
	C490.893127,362.953888 489.669983,366.977661 486.930725,368.670959 
M532.395264,782.659607 
	C535.806580,777.749817 535.663269,767.817871 531.401184,763.616150 
	C531.237061,770.332520 530.738525,776.335876 532.395264,782.659607 
M500.315338,749.699158 
	C500.315338,753.701233 500.315338,757.703308 500.315338,763.017090 
	C504.482025,756.284119 504.473755,746.982727 501.060150,743.094177 
	C499.659119,744.869690 500.475220,746.905151 500.315338,749.699158 
M492.731995,747.672180 
	C492.482422,745.034363 493.313538,742.068726 489.769196,739.282471 
	C489.346649,745.812561 488.629486,751.392151 490.579407,757.760864 
	C493.622437,754.475037 492.364014,751.355591 492.731995,747.672180 
M521.011658,778.032532 
	C520.773071,780.303101 519.474548,782.628845 521.120728,785.183533 
	C524.487671,779.693970 524.730408,771.136902 521.587891,767.240051 
	C520.394470,770.665344 521.471252,773.966797 521.011658,778.032532 
z"/>
<path fill="#000000" opacity="1.000000" stroke="none" 
	d="
M435.921692,645.899109 
	C427.091095,653.783569 416.488678,654.333801 408.548279,647.567017 
	C400.998108,641.132751 399.342834,629.995850 404.728912,621.870178 
	C411.282501,611.983398 424.325592,609.702637 434.045563,616.628723 
	C441.357605,621.838867 445.724670,635.753967 435.921692,645.899109 
M409.794952,639.454468 
	C410.401398,640.241821 410.958527,641.073608 411.622498,641.809021 
	C415.270172,645.849182 419.742523,646.864807 424.724213,644.902588 
	C429.656311,642.959961 433.875366,640.187439 434.706451,634.270874 
	C435.492615,628.674072 433.972656,624.118103 429.058960,620.947021 
	C424.151459,617.779907 417.690369,618.010193 413.233276,621.559326 
	C408.478149,625.345764 407.093201,631.633362 409.794952,639.454468 
z"/>
<path fill="#000000" opacity="1.000000" stroke="none" 
	d="
M598.765991,662.168762 
	C600.237061,651.890137 605.593018,645.814880 614.407288,644.000549 
	C622.261963,642.383728 631.026733,646.222595 635.509521,653.242859 
	C639.666077,659.752380 639.289368,668.917480 634.603516,675.288208 
	C629.950562,681.614075 620.263428,684.707581 612.708496,682.280151 
	C604.118896,679.520325 598.914429,672.182922 598.765991,662.168762 
M625.693665,651.692505 
	C620.408325,648.443726 615.161560,648.762573 610.345764,652.435181 
	C605.984314,655.761292 603.582397,660.268860 604.776428,665.933289 
	C606.104614,672.233826 610.911926,675.812622 618.322144,676.388977 
	C624.062378,676.835449 628.245911,674.300903 630.535156,668.989624 
	C633.321228,662.525696 631.975464,657.163086 625.693665,651.692505 
z"/>
<path fill="#000000" opacity="1.000000" stroke="none" 
	d="
M604.309204,502.818237 
	C609.223633,509.987274 609.758179,516.951782 604.930786,523.990295 
	C600.921753,529.835632 593.157776,532.940796 586.099365,531.250916 
	C578.362854,529.398743 573.781860,524.212402 572.309143,516.544617 
	C570.957092,509.505035 573.692139,503.655792 579.327515,499.572174 
	C585.485840,495.109558 592.278931,494.698029 599.006714,498.552734 
	C600.850891,499.609344 602.397766,501.184753 604.309204,502.818237 
M578.812439,510.535889 
	C577.673035,516.925171 579.744324,521.623108 584.925903,524.401855 
	C589.520935,526.865967 594.565674,525.949707 598.599731,521.918518 
	C602.184570,518.335999 602.825806,512.951355 600.198669,508.111023 
	C598.107361,504.258148 594.822510,502.228180 590.452576,502.276764 
	C585.098816,502.336273 581.361816,505.013885 578.812439,510.535889 
z"/>
<path fill="#000000" opacity="1.000000" stroke="none" 
	d="
M543.597229,576.285645 
	C542.864258,571.677734 546.674316,572.601135 548.722961,572.350525 
	C554.663513,571.623779 560.663574,571.968018 566.617737,572.771545 
	C570.276672,573.265381 574.259216,572.082947 578.809937,575.699097 
	C566.373718,577.632629 555.147705,577.308838 543.597229,576.285645 
z"/>
<path fill="#000000" opacity="1.000000" stroke="none" 
	d="
M570.915283,451.209015 
	C573.737061,448.186005 576.773987,448.783844 580.022888,449.739990 
	C577.432190,454.551697 574.112000,455.106781 570.915283,451.209015 
z"/>
<path fill="#000000" opacity="1.000000" stroke="none" 
	d="
M552.685486,455.959961 
	C554.178406,453.450714 557.645569,453.150421 563.105896,455.267792 
	C559.426392,456.478241 556.192932,456.121765 552.685486,455.959961 
z"/>
</svg>